<svg height='100px' width='100px'  fill="#000000" xmlns="http://www.w3.org/2000/svg" data-name="Layer 1" viewBox="0 0 104 104" x="0px" y="0px"><title>Artboard 32@5x</title><rect x="2" y="58.02" width="16.95" height="41.59" rx="1"></rect><rect x="29.68" y="41.41" width="16.95" height="58.2" rx="1"></rect><path d="M73.32,58H58.37a1,1,0,0,0-1,1V98.61a1,1,0,0,0,1,1H73.32a1,1,0,0,0,1-1V59A1,1,0,0,0,73.32,58Z"></path><rect x="85.05" y="41.41" width="16.95" height="58.2" rx="1"></rect><path d="M13,21.48A10.41,10.41,0,1,0,23.37,31.89,10.42,10.42,0,0,0,13,21.48Z"></path><circle cx="91.01" cy="14.8" r="10.41"></circle><circle cx="65" cy="32.96" r="9.34" transform="translate(-7.62 39.09) rotate(-31.72)"></circle><circle cx="38.97" cy="14.8" r="10.41" transform="translate(-2.7 16.04) rotate(-22.5)"></circle><path d="M73.83,25.86a11.42,11.42,0,0,1,1.57,2.57l6.83-4.87a12.49,12.49,0,0,1-1.85-2.37Z"></path><path d="M49.93,20.61a12.35,12.35,0,0,1-1.72,2.46l6.47,5.21a11.33,11.33,0,0,1,1.6-2.56Z"></path><path d="M28.63,21.65l-5.14,3.69a12.06,12.06,0,0,1,1.29,2.77l5.8-4.18A12.18,12.18,0,0,1,28.63,21.65Z"></path></svg>