<svg height='100px' width='100px'  fill="#000000" xmlns="http://www.w3.org/2000/svg" xmlns:xlink="http://www.w3.org/1999/xlink" version="1.1" x="0px" y="0px" viewBox="0 0 140 140" style="enable-background:new 0 0 140 140;" xml:space="preserve"><g><g><g><path d="M115.6647949,135H24.3352051c-0.5522461,0-1-0.4477539-1-1V6c0-0.5522461,0.4477539-1,1-1h91.3295898     c0.5522461,0,1,0.4477539,1,1v128C116.6647949,134.5522461,116.217041,135,115.6647949,135z M25.3352051,133h89.3295898V7     H25.3352051V133z"></path></g><g><g><path d="M126.3640137,128.0751953h-10.6992188c-0.5522461,0-1-0.4477539-1-1V12.9248047c0-0.5522461,0.4477539-1,1-1h10.6992188      c0.5522461,0,1,0.4477539,1,1v114.1503906C127.3640137,127.6274414,126.9162598,128.0751953,126.3640137,128.0751953z       M116.6647949,126.0751953h8.6992188V13.9248047h-8.6992188V126.0751953z"></path></g><g><path d="M24.3352051,128.0751953H13.6359863c-0.5522461,0-1-0.4477539-1-1V12.9248047c0-0.5522461,0.4477539-1,1-1h10.6992188      c0.5522461,0,1,0.4477539,1,1v114.1503906C25.3352051,127.6274414,24.8874512,128.0751953,24.3352051,128.0751953z       M14.6359863,126.0751953h8.6992188V13.9248047h-8.6992188V126.0751953z"></path></g></g></g><g><path d="M106.829834,30.5703125H33.170166c-0.5522461,0-1-0.4477539-1-1V12.925293c0-0.5522461,0.4477539-1,1-1h73.659668    c0.5522461,0,1,0.4477539,1,1v16.6450195C107.829834,30.1225586,107.3820801,30.5703125,106.829834,30.5703125z     M34.170166,28.5703125h71.659668V13.925293H34.170166V28.5703125z"></path></g><g><g><path d="M106.829834,39.5703125H33.170166c-0.5522461,0-1-0.4477539-1-1s0.4477539-1,1-1h73.659668c0.5522461,0,1,0.4477539,1,1     S107.3820801,39.5703125,106.829834,39.5703125z"></path></g><g><path d="M106.829834,49.7368164H33.170166c-0.5522461,0-1-0.4477539-1-1s0.4477539-1,1-1h73.659668c0.5522461,0,1,0.4477539,1,1     S107.3820801,49.7368164,106.829834,49.7368164z"></path></g><g><path d="M106.829834,59.9033203H33.170166c-0.5522461,0-1-0.4477539-1-1s0.4477539-1,1-1h73.659668c0.5522461,0,1,0.4477539,1,1     S107.3820801,59.9033203,106.829834,59.9033203z"></path></g><g><path d="M106.829834,70.0703125H33.170166c-0.5522461,0-1-0.4477539-1-1s0.4477539-1,1-1h73.659668c0.5522461,0,1,0.4477539,1,1     S107.3820801,70.0703125,106.829834,70.0703125z"></path></g></g><g><path d="M101.1877441,127.3769531H40.079834c-0.5522461,0-1-0.4477539-1-1V76.6933594c0-0.5522461,0.4477539-1,1-1h61.1079102    c0.5522461,0,1,0.4477539,1,1v49.6835938C102.1877441,126.9291992,101.7399902,127.3769531,101.1877441,127.3769531z     M41.079834,125.3769531h59.1079102V77.6933594H41.079834V125.3769531z"></path></g><g><g><path d="M70.6340332,119.25c-9.7680664,0-17.7148438-7.9467773-17.7148438-17.7148438     s7.9467773-17.7148438,17.7148438-17.7148438s17.7148438,7.9467773,17.7148438,17.7148438S80.4020996,119.25,70.6340332,119.25z      M70.6340332,85.8203125c-8.6650391,0-15.7148438,7.0498047-15.7148438,15.7148438S61.9689941,117.25,70.6340332,117.25     s15.7148438-7.0498047,15.7148438-15.7148438S79.2990723,85.8203125,70.6340332,85.8203125z"></path></g><g><g><g><path d="M70.6306152,92.9135742c-0.2177734,0-0.4350586-0.0708008-0.6162109-0.2124023l-5.5512695-4.3432617       c-0.2421875-0.1894531-0.3837891-0.4799805-0.3837891-0.7875977v-1.7949219c0-0.5522461,0.4477539-1,1-1s1,0.4477539,1,1       v1.3076172l4.5517578,3.5610352l4.5576172-3.5615234v-1.3071289c0-0.5522461,0.4477539-1,1-1s1,0.4477539,1,1v1.7949219       c0,0.3076172-0.1416016,0.5986328-0.3842773,0.7880859l-5.5581055,4.3432617       C71.0656738,92.8427734,70.8479004,92.9135742,70.6306152,92.9135742z"></path></g><g><path d="M55.6335449,103.5053711c-0.1035156,0-0.2075195-0.0161133-0.3081055-0.0488281l-1.7055664-0.5527344       c-0.5253906-0.1699219-0.8134766-0.7338867-0.6430664-1.2592773c0.1699219-0.5253906,0.7368164-0.8120117,1.2592773-0.6430664       l1.2421875,0.4023438l4.7958984-3.2333984l-1.9814453-5.4360352l-1.2353516-0.4013672       c-0.5253906-0.1708984-0.8125-0.7353516-0.6420898-1.2602539c0.1708984-0.5244141,0.7353516-0.8115234,1.2602539-0.6420898       l1.6987305,0.5522461c0.2924805,0.0952148,0.5249023,0.3198242,0.6303711,0.6088867l2.4165039,6.628418       c0.1572266,0.4311523,0.0004883,0.9145508-0.3803711,1.1713867l-5.8481445,3.9428711       C56.0256348,103.4472656,55.8303223,103.5053711,55.6335449,103.5053711z"></path></g><g><path d="M65.8581543,118.550293c-0.2041016,0-0.4101562-0.0625-0.5878906-0.1918945       c-0.4462891-0.3251953-0.5444336-0.9506836-0.2192383-1.3969727l0.769043-1.0551758l-1.5908203-5.5595703l-5.7817383,0.2045898       l-0.7700195,1.0561523c-0.3251953,0.4458008-0.9501953,0.5454102-1.3969727,0.2192383       c-0.4462891-0.3251953-0.5444336-0.9506836-0.2192383-1.3969727l1.0566406-1.449707       c0.1806641-0.2485352,0.4658203-0.3999023,0.7729492-0.4106445l7.0493164-0.2490234       c0.4521484-0.0083008,0.8701172,0.2822266,0.996582,0.7246094l1.9404297,6.7807617       c0.0849609,0.2958984,0.0283203,0.6147461-0.1533203,0.8637695l-1.0566406,1.449707       C66.4714355,118.4077148,66.1672363,118.550293,65.8581543,118.550293z"></path></g><g><path d="M75.4094238,118.550293c-0.309082,0-0.6132812-0.1425781-0.809082-0.4111328l-1.0561523-1.449707       c-0.1816406-0.2490234-0.2382812-0.5678711-0.1533203-0.8637695l1.9399414-6.7807617       c0.1264648-0.4423828,0.5615234-0.7333984,0.996582-0.7246094l7.0498047,0.2490234       c0.3071289,0.0107422,0.5922852,0.1625977,0.7729492,0.4106445l1.0561523,1.449707       c0.3251953,0.4462891,0.2270508,1.0717773-0.2192383,1.3969727c-0.4472656,0.3261719-1.0722656,0.2265625-1.3969727-0.2192383       l-0.7695312-1.0561523l-5.7822266-0.2045898l-1.590332,5.5595703l0.7685547,1.0551758       c0.3251953,0.4462891,0.2270508,1.0717773-0.2192383,1.3969727       C75.8195801,118.487793,75.6135254,118.550293,75.4094238,118.550293z"></path></g><g><path d="M85.6345215,103.5053711c-0.1967773,0-0.3920898-0.0581055-0.559082-0.1708984l-5.8486328-3.9428711       c-0.3808594-0.2568359-0.5375977-0.7402344-0.3803711-1.171875l2.4169922-6.628418       c0.1054688-0.2885742,0.3378906-0.5131836,0.6303711-0.6083984l1.6982422-0.5522461       c0.5268555-0.1694336,1.0898438,0.1171875,1.2602539,0.6420898s-0.1166992,1.0893555-0.6420898,1.2602539l-1.2348633,0.4013672       l-1.9819336,5.4360352l4.7963867,3.2333984l1.2412109-0.4023438c0.5273438-0.1689453,1.0898438,0.1176758,1.2597656,0.6425781       c0.1704102,0.5253906-0.1171875,1.0893555-0.6425781,1.2597656l-1.7050781,0.5527344       C85.842041,103.4892578,85.7380371,103.5053711,85.6345215,103.5053711z"></path></g></g></g><g><path d="M74.005127,107.2783203h-6.7495117c-0.4331055,0-0.8173828-0.2788086-0.9511719-0.690918l-2.0854492-6.4189453     c-0.1337891-0.4121094,0.0126953-0.8632812,0.3632812-1.1181641l5.4604492-3.9672852     c0.3505859-0.2548828,0.8251953-0.2548828,1.1757812,0l5.4604492,3.9672852     c0.3505859,0.2548828,0.4970703,0.7060547,0.3632812,1.1181641l-2.0859375,6.4189453     C74.8225098,106.9995117,74.4382324,107.2783203,74.005127,107.2783203z M67.9821777,105.2783203h5.2963867l1.6367188-5.0371094     l-4.284668-3.1132812l-4.284668,3.1132812L67.9821777,105.2783203z"></path></g><g><path d="M64.9743652,110.3198242c-0.2084961,0-0.4189453-0.0649414-0.5986328-0.199707     c-0.4418945-0.331543-0.5317383-0.9584961-0.2006836-1.4003906l2.2802734-3.0410156     c0.3320312-0.4414062,0.9580078-0.53125,1.3999023-0.2006836c0.4418945,0.331543,0.5317383,0.9584961,0.2006836,1.4003906     l-2.2802734,3.0415039C65.5788574,110.1816406,65.2785645,110.3198242,64.9743652,110.3198242z"></path></g><g><path d="M65.170166,100.8598633c-0.1098633,0-0.222168-0.0185547-0.331543-0.0571289l-3.6884766-1.296875     c-0.5209961-0.1831055-0.7949219-0.7539062-0.6118164-1.2749023c0.1831055-0.5214844,0.7543945-0.7963867,1.2749023-0.6118164     l3.6884766,1.296875c0.5209961,0.1831055,0.7949219,0.7539062,0.6118164,1.2749023     C65.9689941,100.6025391,65.5827637,100.8598633,65.170166,100.8598633z"></path></g><g><path d="M70.6306152,96.8920898c-0.5522461,0-1-0.4477539-1-1v-3.9785156c0-0.5522461,0.4477539-1,1-1s1,0.4477539,1,1v3.9785156     C71.6306152,96.4443359,71.1828613,96.8920898,70.6306152,96.8920898z"></path></g><g><path d="M76.0910645,100.8598633c-0.4125977,0-0.7993164-0.2578125-0.9433594-0.6694336     c-0.1831055-0.5209961,0.0908203-1.0917969,0.6123047-1.2744141l3.6948242-1.296875     c0.5205078-0.1850586,1.0917969,0.0913086,1.2744141,0.6123047c0.1831055,0.5209961-0.0908203,1.0917969-0.6123047,1.2744141     l-3.6948242,1.296875C76.3127441,100.8413086,76.2009277,100.8598633,76.0910645,100.8598633z"></path></g><g><path d="M76.2932129,110.3198242c-0.3037109,0-0.6035156-0.1376953-0.800293-0.3989258l-2.2871094-3.0415039     c-0.3320312-0.4414062-0.2431641-1.0683594,0.1982422-1.4003906c0.4423828-0.3310547,1.0683594-0.2426758,1.4003906,0.1982422     l2.2871094,3.0415039c0.3320312,0.4414062,0.2431641,1.0683594-0.1982422,1.4003906     C76.7131348,110.2543945,76.5021973,110.3198242,76.2932129,110.3198242z"></path></g></g></g></svg>