<svg height='100px' width='100px'  fill="#000000" xmlns="http://www.w3.org/2000/svg" xmlns:xlink="http://www.w3.org/1999/xlink" version="1.1" x="0px" y="0px" viewBox="0 0 48 48" enable-background="new 0 0 48 48" xml:space="preserve"><g><g><path d="M37.4,35.8c-9.3,4.4-18.3,4.6-26.8,0c0-5.7,3.1-10.7,7.7-13c1.5,1.3,3.5,2.1,5.7,2.1c2.2,0,4.2-0.8,5.7-2.1    C34.2,25.2,37.4,30.1,37.4,35.8z"></path><circle cx="24" cy="16.1" r="6.9"></circle></g><g><path d="M48,29c-3.1,1.5-6.2,2.3-9.2,2.5c-1.1-4.3-3.9-8.1-7.7-10.2c0.3-0.3,0.5-0.7,0.7-1.1c0.5-0.4,1.1-0.8,1.7-1.1    c1.2,1,2.7,1.6,4.3,1.6c1.7,0,3.2-0.6,4.3-1.6C45.6,20.9,48,24.7,48,29z"></path><path d="M43.1,14c0,2.9-2.3,5.2-5.2,5.2c-2.4,0-4.4-1.6-5-3.8c0-0.4-0.1-0.8-0.2-1.2c0,0,0,0,0,0v0c0,0,0-0.1,0-0.1    c0-2.9,2.3-5.2,5.2-5.2S43.1,11.1,43.1,14z"></path></g><g><path d="M16.9,21.4c-3.8,2.1-6.6,5.9-7.7,10.2C6,31.5,3,30.6,0,29c0-4.3,2.4-8.1,5.8-9.8c1.2,1,2.7,1.6,4.3,1.6s3.2-0.6,4.3-1.6    c0.6,0.3,1.2,0.7,1.7,1.1C16.4,20.7,16.6,21,16.9,21.4z"></path><path d="M15.4,14c0,0,0,0.1,0,0.1v0c0,0,0,0,0,0c-0.1,0.4-0.1,0.8-0.2,1.2c-0.6,2.2-2.6,3.8-5,3.8c-2.9,0-5.2-2.3-5.2-5.2    c0-2.9,2.3-5.2,5.2-5.2S15.4,11.1,15.4,14z"></path></g></g></svg>