<svg height='100px' width='100px'  fill="#fff" xmlns="http://www.w3.org/2000/svg" viewBox="0 0 512 512" x="0px" y="0px"><title>Volleyball</title><g><path d="M74.6705,349.2261c33.2568-.0119,63.4659-6.7091,90.0227-19.8619l-9.0909-15.7472c-30-52.0227-45.2091-106.7318-45.2-162.6045a307.26,307.26,0,0,1,4.0977-49.625A209.399,209.399,0,0,0,68.5466,349.2284Z"></path><path d="M184.0432,318.196c23.1636-15.4057,42.9523-36.525,59.0659-62.8591-18.4955-34.0363-27.9841-69.0875-27.9841-104.3108,0-35.2028,9.4773-70.2352,27.9523-104.2522A208.2326,208.2326,0,0,0,140.28,81.2205l.891.1875-2.3,10.9272a285.3521,285.3521,0,0,0-6.1228,58.6773c-.0091,51.9091,14.1909,102.8591,42.2046,151.4364Z"></path><path d="M265.675,51.9216c-16.6182,28.8085-25.9182,58.3227-27.8057,87.8909h18.183c60.0545.0318,115.0363,14.2136,163.4182,42.1636a306.8506,306.8506,0,0,1,40.992,28.4125c-19.867-89.8511-97.3943-158.0034-191.8068-163.6352Z"></path><path d="M162.2023,442.3807l10.6182-3.4637a285.1616,285.1616,0,0,0,54.1318-24.109c44.9591-25.95,81.9863-63.7273,110.0454-112.2773l9.0932-15.7438c-24.9227-12.3591-53.1091-18.938-83.9739-19.725-20.2238,33.03-45.8352,58.7735-76.342,76.387-30.5386,17.6335-65.6727,26.9426-104.4341,27.9278a210.3228,210.3228,0,0,0,81.1273,71.82Z"></path><path d="M464.4432,243.49l-8.3137-7.4591a285.1551,285.1551,0,0,0-47.8272-34.7044c-44.95-25.9683-96.1773-39.1456-152.2546-39.1683H237.8659c1.7591,27.7562,10.15,55.4562,24.9,82.58,38.7205.9989,73.8205,10.3068,104.3318,27.925,30.5341,17.6295,56.1659,43.4006,76.4023,76.4767a208.5209,208.5209,0,0,0,21.9545-93.3466c0-4.3506-.1761-8.6579-.4375-12.9426Z"></path><path d="M427.6523,365.99c-16.6421-28.7926-37.55-51.6068-62.2159-68.029l-9.0932,15.7472c-30.05,51.9909-69.8227,92.5136-118.2182,120.45a307.6074,307.6074,0,0,1-45.3136,21.3659A209.5952,209.5952,0,0,0,430.7159,371.29Z"></path></g></svg>