<svg xmlns="http://www.w3.org/2000/svg" data-name="Layer 1" viewBox="0 0 64 80" x="0px" y="0px"><title>1</title><path d="M39.45,13.17H24.55l2.06-7.91A5.6,5.6,0,0,1,32,1.19h0a5.6,5.6,0,0,1,5.39,4.07Z"/><polygon points="41.88 22.45 22.13 22.45 23.63 16.69 40.37 16.69 41.88 22.45"/><path d="M49.87,53.08C44.94,52.7,38.65,52.5,32,52.5s-12.94.2-17.87.58L21.21,26H42.79Z"/><path d="M32,56.09c-14.54,0-26.33,1-26.33,2.24v2.24c0,1.24,11.79,2.24,26.33,2.24s26.33-1,26.33-2.24V58.33C58.33,57.09,46.54,56.09,32,56.09Z"/><text x="0" y="79" fill="#000000" font-size="5px" font-weight="bold" font-family="'Helvetica Neue', Helvetica, Arial-Unicode, Arial, Sans-serif">Created by Anwar Hossain</text><text x="0" y="84" fill="#000000" font-size="5px" font-weight="bold" font-family="'Helvetica Neue', Helvetica, Arial-Unicode, Arial, Sans-serif">from the Noun Project</text></svg>