<svg xmlns="http://www.w3.org/2000/svg" xmlns:xlink="http://www.w3.org/1999/xlink" version="1.1" x="0px" y="0px" viewBox="0 0 95 118.75" enable-background="new 0 0 95 95" xml:space="preserve"><g><path d="M40.029,8.891V4.299h-6.92v76.322h6.92v-45.58h35.883V8.891H40.029z M75.023,34.152H39.141V79.73h-5.143V5.188h5.143v4.59   h35.883V34.152z"/><path d="M41.953,70.037l-0.523-0.096v6.443l0.342,0.08c4.068,0.967,5.967,2.762,5.967,3.67c0,1.5-4.242,4.254-11.17,4.254   c-6.926,0-11.166-2.754-11.166-4.254c0-0.908,1.895-2.703,5.965-3.67l0.34-0.08v-6.443l-0.523,0.096   c-7.346,1.338-12.096,5.303-12.096,10.098c0,6.023,7.516,10.566,17.48,10.566c9.967,0,17.48-4.543,17.48-10.566   C54.049,75.34,49.303,71.375,41.953,70.037z M36.568,89.813c-9.457,0-16.59-4.162-16.59-9.678c0-4.234,4.234-7.781,10.842-9.121   v4.672c-3.676,0.943-6.307,2.787-6.307,4.449c0,2.379,5.264,5.143,12.055,5.143s12.059-2.764,12.059-5.143   c0-1.662-2.635-3.508-6.307-4.449v-4.672c6.602,1.34,10.84,4.887,10.84,9.121C53.16,85.65,46.027,89.813,36.568,89.813z"/></g><text x="0" y="110" fill="#000000" font-size="5px" font-weight="bold" font-family="'Helvetica Neue', Helvetica, Arial-Unicode, Arial, Sans-serif">Created by Guilherme Furtado</text><text x="0" y="115" fill="#000000" font-size="5px" font-weight="bold" font-family="'Helvetica Neue', Helvetica, Arial-Unicode, Arial, Sans-serif">from the Noun Project</text></svg>