<svg xmlns="http://www.w3.org/2000/svg" xmlns:xlink="http://www.w3.org/1999/xlink" version="1.1" viewBox="0 0 61.318 73.35625" overflow="visible" enable-background="new 0 0 61.318 58.685" xml:space="preserve" x="0px" y="0px"><path d="M25.32,0.151c-2.545,0.368-5.05,0.645-7.405,1.776c-3.827,1.838-6.778,4.684-9.64,7.731  c-1.912,2.035-3.294,4.454-4.797,6.785C1.271,19.866,0.009,24.089,0,28.132c-0.004,1.946,0.018,4.101,0.468,6.001  c0.225,0.946,0.506,1.882,0.704,2.833c0.224,1.074,0.318,2.105,0.479,3.176c0.201,1.339,0.599,2.748,1.276,3.922  c0.815,1.412,1.729,2.975,2.957,4.035c0.44,0.381,0.881,0.756,1.3,1.159c0.676,0.648,1.582,1.014,2.365,1.518  c0.875,0.562,1.728,1.164,2.568,1.776c1.678,1.224,3.757,2.221,5.663,3.038c1.987,0.854,4.129,1.31,6.241,1.741  c0.988,0.201,1.959,0.503,2.936,0.756c0.999,0.26,2.077,0.313,3.1,0.456c1.918,0.267,4.082,0.104,6.004-0.049  c2.652-0.209,5.443-0.297,7.957-1.22c1.327-0.487,2.824-0.867,3.957-1.738c1.139-0.876,2.276-1.812,3.286-2.834  c2.345-2.374,4.252-5.123,6.105-7.873c1.188-1.765,2.081-3.712,2.593-5.781c1.19-4.817,1.826-9.977,0.958-14.89  c-0.396-2.233-0.781-4.706-1.553-6.834c-0.576-1.588-1.578-2.982-2.469-4.407c-0.609-0.975-1.216-1.813-1.988-2.664  c-0.521-0.572-0.935-1.184-1.645-1.548c-0.432-0.221-0.948-0.43-1.315-0.741c-0.822-0.698-1.736-1.225-2.645-1.803  c-0.887-0.564-1.739-1.183-2.637-1.73c-0.916-0.558-1.918-0.978-2.821-1.549c-2.364-1.961-5.518-1.684-8.328-2.266  c-0.941-0.195-1.633-0.123-2.543,0.065c-0.924,0.191-1.554-0.614-2.548-0.451c-1.352,0.104-2.633-0.304-3.979-0.219  C26.068,0.036,25.694,0.094,25.32,0.151 M30.498,57.586c-2.108-0.209-4.04-0.773-6.096-1.196c-1.928-0.396-3.969-0.75-5.786-1.526  c-1.079-0.461-2.08-0.959-3.102-1.531c-0.885-0.495-1.851-0.891-2.672-1.488c-1.975-1.437-4.127-2.605-5.962-4.201  c-2.168-1.885-3.794-4.781-4.239-7.639c-0.17-1.095-0.266-2.16-0.495-3.261c-0.196-0.945-0.538-1.859-0.708-2.81  c-0.376-2.1-0.441-4.286-0.438-6.413c0.006-4.02,1.72-7.857,3.768-11.237c3.122-5.152,7.203-9.903,12.516-12.898  c2.366-1.333,4.764-1.751,7.391-2.131c1.393-0.201,2.619-0.196,4.008-0.043c0.51,0.057,0.939,0.08,1.448,0.041  c0.256-0.02,0.539-0.079,0.794-0.071c0.648,0.019,0.489-0.074,0.642,0.078c0.151,0.151,0.493,0.035,0.583,0.125  c0.76,0.35,1.135,0.24,1.896,0.078c0.851-0.182,1.999,0.298,2.861,0.477c1.039,0.216,2.116,0.133,3.175,0.347  c1.659,0.334,2.872,1.309,4.348,2.028c0.92,0.449,1.782,1.002,2.635,1.566c0.91,0.603,1.813,1.22,2.747,1.787  c0.929,0.565,1.728,1.253,2.688,1.771c2.053,1.107,3.325,3.64,4.505,5.569c1.023,1.672,1.611,3.197,2.017,5.09  c0.217,1.017,0.447,2.03,0.688,3.041c0.618,2.58,0.8,5.312,0.543,7.945c-0.221,2.271-0.515,4.661-1.064,6.872  c-0.261,1.05-0.54,2.035-0.914,3.053c-0.37,1.007-0.957,1.834-1.464,2.777c-1.22,2.271-2.875,4.409-4.564,6.354  c-1.319,1.521-2.729,2.835-4.277,4.105c-1.153,0.947-2.393,1.395-3.778,1.885C39.911,57.644,35.014,57.684,30.498,57.586"/><path d="M17.136,17.015c-1.013,0.072-2.002,0.105-3.017,0.109c-1.789,0.006-3.34,0.213-5.081,0.665  c-1.617,0.42-2.888,1.106-4.272,1.987c-1.33,0.846-2.634,1.414-3.496,2.811l0.426,0.263c0.914-1.485,2.6-2.171,4.031-3.097  c1.93-1.248,4.629-2.116,6.947-2.124c1.512-0.005,3.005,0.006,4.513-0.116c2.641-0.275,5.365,0.147,8.039,0.133  c1.449-0.008,2.823-0.353,4.26,0.025c1.409,0.371,2.729,1.017,4.134,1.409c1.041,0.291,1.883,0.559,2.769,1.181  c0.594,0.417,1.22,0.804,1.841,1.181c1.326,0.804,2.607,1.58,3.819,2.551c1.585,1.269,3.542,2.134,5.068,3.483  c1.71,1.511,3.735,3.135,4.878,5.08c0.503,0.856,1.035,1.7,1.517,2.568c0.454,0.817,0.968,1.621,1.289,2.502  c0.372,1.019,0.397,2.221,0.645,3.279c0.433,1.861,0.875,3.234,0.788,5.146l0.5-0.708c0.075-1.635-0.188-2.025-0.592-3.604  c-0.188-0.731-0.488-1.532-0.558-2.276c-0.165-1.768-0.778-3.038-1.63-4.574c-0.877-1.582-1.811-3.59-3.192-4.75  c-1.167-0.979-2.224-2.076-3.376-3.089c-1.349-1.186-2.989-2.145-4.512-3.106c-1.093-0.69-2.112-1.509-3.175-2.235  c-0.455,0-1.367-0.794-1.78-1.059c-0.626-0.399-1.245-0.787-1.841-1.229c-0.894-0.663-2.129-0.712-3.167-1.052  c-0.747-0.245-1.479-0.558-2.214-0.838c-1.566-0.597-3.065-0.622-4.712-0.424C23.041,17.459,20.067,16.71,17.136,17.015"/><path d="M34.752,1.498C32.979,2.506,31.407,3.44,30.1,5.11c-0.905,1.101-1.896,2.188-2.654,3.401  c-0.804,1.289-1.578,2.493-2.496,3.717c-0.879,1.173-1.305,2.48-1.805,3.85c-0.446,1.219-1.019,2.384-1.481,3.612  c-0.75,1.99-0.864,4.253-1.049,6.354c-0.264,3.001-0.335,5.989-0.527,8.992c-0.219,3.43-0.205,6.86-0.053,10.302  c0.159,3.593,1.095,7.075,1.367,10.637l0.5,0.005c-0.463-5.82-2.28-11.729-1.398-17.631c0.425-2.848,0.083-5.864,0.318-8.741  c0.298-3.635,0.271-7.565,1.761-10.943c0.674-1.528,1.255-3.071,1.866-4.642c0.639-1.644,2.131-2.825,2.911-4.407  c0.748-1.519,2.018-2.872,3.1-4.156c1.002-1.189,2.115-1.944,3.285-2.923c0.48-0.402,2.252-0.58,1.869-1.398L34.752,1.498"/><path d="M14.576,3.949c0.631,2.374,2.123,4.123,3.137,6.282c0.549,1.17,1.159,2.139,1.881,3.228  c1.888,2.847,3.323,5.854,5.286,8.653c0.735,1.049,1.418,2.109,2.014,3.24c0.822,1.563,2.391,2.705,3.047,4.445  c0.483,1.28,1.496,2.175,2.063,3.381c0.294,0.625,0.756,1.052,1.044,1.69c0.284,0.633,0.407,1.447,0.614,2.112  c0.52,1.666,1.764,3.149,2.425,4.789c0.643,1.596,1.46,3.112,2.193,4.673c0.711,1.514,1.106,3.151,1.688,4.711  c0.62,1.664,2.267,3.765,2.267,5.56l0.5,0.01c0-1.505-1.231-3.423-1.95-4.719c-0.656-1.184-0.845-2.639-1.313-3.899  c-0.51-1.37-1.075-2.737-1.761-4.031c-0.642-1.211-1.029-2.547-1.683-3.737c-0.772-1.411-1.67-2.771-2.144-4.311  c-0.405-1.319-0.865-2.345-1.678-3.456c-0.92-1.259-1.445-2.513-2.198-3.84c-0.783-1.382-1.992-2.645-2.832-3.903  c-0.872-1.306-1.665-2.671-2.578-3.963c-0.553-0.783-0.809-1.712-1.347-2.509c-0.291-0.43-0.663-0.792-0.96-1.2  c-0.422-0.579-0.665-1.321-1.032-1.963c-0.431-0.756-0.9-1.486-1.391-2.207c-0.399-0.587-1.087-1.316-1.331-1.961  c-0.952-2.521-2.776-4.553-3.479-7.203L14.576,3.949"/><path d="M41.114,10.343c-2.866,0.245-5.456,0.5-8.211,1.375c-1.017,0.322-2.116,0.537-3.022,1.111  c-0.691,0.438-1.362,0.743-2.125,1.037c-1.119,0.431-2.534,0.883-3.554,1.523c-3.778,3.778-8.717,6.096-12.905,9.36  c-2.387,1.86-4.925,3.884-6.075,6.854c-0.881,2.278-1.654,5.107-1.654,7.604c0,2.527,0.705,4.975,1.34,7.405l0.485-0.121  c-0.551-2.109-1.325-4.338-1.325-6.535c0-1.95,0.391-3.881,0.868-5.771c0.518-2.052,1.252-3.743,2.587-5.351  c0.903-1.087,1.902-1.833,2.944-2.697c1.059-0.878,2.215-1.56,3.301-2.398c0.347,0,1.142-1.134,1.472-1.311  c0.712-0.382,1.436-0.728,2.115-1.163c2.036-1.304,4.3-2.765,6.104-4.41c0.411-0.411,0.776-0.982,1.342-1.16  c0.662-0.208,1.317-0.579,1.953-0.857c0.693-0.304,1.386-0.586,2.092-0.858c0.682-0.262,1.234-0.776,1.904-1.06  c2.627-1.111,5.887-2.029,8.762-1.956c1.613,0.041,3.204-0.287,4.831-0.123c1.543,0.156,3.189,0.986,4.647,1.538  c0.505,0.191,1.501,0.319,1.906,0.645c0.572,0.459,1.136,0.9,1.737,1.32c0.965,0.672,2.197,1.394,3.304,1.852  c0.573,0.238,1.068,0.514,1.559,0.906c0.356,0.286,0.547,0.764,1.07,0.635c0.093-1.239-3.101-2.315-4.027-2.919  c-0.592-0.386-1.209-0.596-1.795-1.005c-0.538-0.376-1.09-0.988-1.668-1.278c-1.179-0.592-2.694-0.942-3.957-1.363  c-1.278-0.426-2.367-0.838-3.742-0.872C42.622,10.28,41.869,10.317,41.114,10.343"/><text x="0" y="73.685" fill="#000000" font-size="5px" font-weight="bold" font-family="'Helvetica Neue', Helvetica, Arial-Unicode, Arial, Sans-serif">Created by Jan Wagner</text><text x="0" y="78.685" fill="#000000" font-size="5px" font-weight="bold" font-family="'Helvetica Neue', Helvetica, Arial-Unicode, Arial, Sans-serif">from the Noun Project</text></svg>