<svg xmlns="http://www.w3.org/2000/svg" xmlns:xlink="http://www.w3.org/1999/xlink" xml:space="preserve" version="1.1" style="shape-rendering:geometricPrecision;text-rendering:geometricPrecision;image-rendering:optimizeQuality;" viewBox="0 0 7981 9976.25" x="0px" y="0px" fill-rule="evenodd" clip-rule="evenodd"><defs><style type="text/css">
   
    .fil0 {fill:black;fill-rule:nonzero}
   
  </style></defs><g><path class="fil0" d="M3443 7943c1195,165 2450,-212 3369,-1131 490,-489 825,-1074 1007,-1695 -376,-307 -791,-580 -1224,-791 -365,802 -763,1531 -1308,2165 -534,622 -1146,1069 -1844,1452z"/><path class="fil0" d="M999 6631c54,62 111,122 170,181 592,593 1325,960 2091,1102 632,-332 1586,-1139 1876,-1471 563,-644 970,-1397 1327,-2180 -605,-274 -1417,-538 -2423,-268 -498,776 -909,1410 -1682,1962 -397,283 -843,505 -1359,674z"/><path class="fil0" d="M971 1382c-1267,1463 -1294,3629 -80,5122 505,-170 807,-325 1339,-635 -957,-1536 -1377,-2745 -1259,-4487z"/><path class="fil0" d="M2502 287c-485,195 -940,489 -1333,882 -12,11 -23,23 -35,35 -150,1801 201,2950 1215,4580 598,-443 1009,-970 1395,-1600l124 -207c-609,-592 -1006,-1293 -1219,-1959 -187,-688 -183,-1176 -147,-1731z"/><path class="fil0" d="M6812 1169c-1123,-1124 -2750,-1437 -4154,-941 -29,494 -63,912 95,1615 943,-201 1850,-317 2748,-207 697,84 1354,297 2095,643 -190,-401 -451,-778 -784,-1110z"/><path class="fil0" d="M3960 3863c1366,-463 2928,268 3904,1088 202,-815 143,-1681 -177,-2466 -792,-383 -1477,-615 -2205,-704 -882,-107 -1764,7 -2690,205 180,606 696,1487 1168,1877z"/></g><text x="0" y="7996" fill="#000000" font-size="5px" font-weight="bold" font-family="'Helvetica Neue', Helvetica, Arial-Unicode, Arial, Sans-serif">Created by joni</text><text x="0" y="8001" fill="#000000" font-size="5px" font-weight="bold" font-family="'Helvetica Neue', Helvetica, Arial-Unicode, Arial, Sans-serif">from the Noun Project</text></svg>