<svg height='100px' width='100px'  fill="#f35252" xmlns="http://www.w3.org/2000/svg" xmlns:xlink="http://www.w3.org/1999/xlink" version="1.1" x="0px" y="0px" viewBox="0 0 100 100" style="enable-background:new 0 0 100 100;" xml:space="preserve"><path d="M85.5,21.586853c-9.6900024-9.5900269-25.1199951-10.1400146-35.5-1.4099731  c-10.3800049-8.7300415-25.8099976-8.1800537-35.5,1.4099731c-4.9799805,4.9299927-7.7299805,11.4699707-7.7299805,18.4099731  c0,6.9500122,2.75,13.4900513,7.7199707,18.4100342c2.7700195,2.7700195,34.4899902,34.1900024,34.8099976,34.5L50,93.6068726  l0.710022-0.7000122c2.1799927-2.1799927,20.8099976-20.6400146,29.7599487-29.5  c2.9800415-2.960022,4.960022-4.9299927,5.0300293-4.9899902c4.960022-4.8699951,7.710022-11.3699951,7.7199707-18.3099976  v-0.0800171C93.2199707,33.0568237,90.4799805,26.5168457,85.5,21.586853z M73.0200195,25.6768799l0.7600098-1.8500366  c2.1499634,0.8800049,4.0799561,2.1600342,5.7399902,3.8099976c1.6699829,1.6500244,2.9799805,3.5700073,3.8699951,5.710022  l-1.8500366,0.7699585c-0.789978-1.8899536-1.9400024-3.5899658-3.4199829-5.0599976  C76.6400146,27.5968628,74.9199829,26.4568481,73.0200195,25.6768799z M82.4299927,37.0168457l1.960022-0.3900146  c0.2199707,1.1000366,0.3299561,2.2600098,0.3299561,3.4500122l-2,0.0100098  C82.7199707,39.0168457,82.6199951,37.9868774,82.4299927,37.0168457z"></path></svg>