<svg height='100px' width='100px'  fill="#ffffff" xmlns="http://www.w3.org/2000/svg" xmlns:xlink="http://www.w3.org/1999/xlink" version="1.1" x="0px" y="0px" viewBox="0 0 1000 1000" style="enable-background:new 0 0 1000 1000;" xml:space="preserve"><g><path d="M635.3,249.8c-28.4,27.5-58.5,53.2-90.2,76.8c-31.9,23.7-65.3,45.4-100,64.8c-8.2,4.6-18,8.3-24.7,15   c-3.9,3.9-7,8.5-9.9,13.1c-3.9,6.3-8.4,13.3-10.3,20.6c-2.5,9.6-2.3,20.7-2.8,30.6c-0.5,10.6-0.5,21.3,0,31.9   c2.2,47.6,14.5,94,35.3,136.8c0.2-0.1,0.4-0.2,0.6-0.3c55.6-38.9,108.8-81.2,158.1-127.8c49.1-46.3,94.1-96.8,134.1-151.2   c24.1-32.8,46.3-66.9,66.8-102.1c0.7-1.2,7.8-12.4,6.2-13.7c-28.6-24.1-57.2-48.3-85.8-72.4c-0.1-0.1-0.3,0-0.5,0.1   c-2.2,0.6-5.1,0.9-7,2.1c-3.4,2.2-6.2,7.3-8.9,10.4c-6.6,7.7-13.3,15.4-20.1,22.9C663,222,649.4,236.1,635.3,249.8z M682.5,210.3   c2.6-3.1,5.4-8.1,8.8-10.4c1.6-1.1,4.5-1.5,6.5-2c28.2,23.8,56.3,47.5,84.5,71.3c-1.6,2.6-3.3,5.4-5.2,8.4   c-4.5,7.2-8.5,13.5-13.3,20.9c-9.3,14.1-18.9,27.9-28.9,41.6c-20.3,27.6-42,54.2-65,79.7c-46.1,51.3-97.1,98-151.1,140.7   c-13.8,10.9-27.8,21.5-42,32c-7.1,5.2-14.3,10.4-21.5,15.5c-1.6,1.1-3.2,2.2-4.8,3.4c-2.9,2-3.4,0.9-4.8-2.1   c-2.3-4.8-4.4-9.6-6.5-14.4c-14.7-34.9-23.8-72-26.3-109.8c-1.2-18.9-0.9-38,0.8-56.9c0.1-0.6,0.1-1.2,0.2-1.8   c0.3-0.2,0.7-0.4,1-0.6c8-4.3,15.9-8.6,23.7-13.1c30.6-17.5,60.2-36.8,88.6-57.7C584.3,312.9,636.4,264.2,682.5,210.3z"></path><path d="M561.4,590.9c-29.2,23.6-59.3,46.1-90,67.6c-1.6,1.1-3.2,4-4.2,5.5c-1.7,2.6-3.3,5.3-4.8,8   c-0.6,1-1.2,2.1-1.7,3.1c-1.1,1.9-2.2,3.9-2.9,5.9c-0.5,1-1,2.2-0.8,2.9c0,0,0,0.1,0,0.1c0,0.1,0,0.1,0.1,0.2   c7.6,11.6,15.1,22.8,23.7,33.7c7.3,9.1,13.5,21.3,24.3,26.8c10.3,5.2,21.8,2.7,32.5,0.1c11.4-2.8,22.7-5.9,33.8-9.4   c42.6-13.4,83.5-32.5,120.4-57.6c77.4-52.7,132.7-130.9,171.2-215.2c5.7-12.5,12.2-25.5,15.7-38.9c2-7.7,0.7-14.1-1.1-21.6   c-1.9-7.8-4-15.6-6.4-23.2c-9.7-31.1-23.9-60.5-42.2-87.4c-0.5-0.7-6.7,8.8-6.8,8.8c-33.8,55-73.9,107.7-117.6,156.1   C660.6,504.8,612.4,549.6,561.4,590.9z M814.7,318.2c15.4,22.8,27.9,47.4,37.2,73.4c4.4,12.4,8.1,25.1,11.1,38   c1.5,6.5,2.3,12.1,0.5,18.6c-1.6,5.8-4.2,11.4-6.5,16.9c-4.4,10.4-8.9,20.3-13.8,30.1c-2.7,5.4-3.6,7.2-6.2,11.9   c-1,1.8-1.9,3.5-2.9,5.3c-0.3,0.5-1.2,2.1-1.3,2.3c-0.9,1.6-1.8,3.2-2.8,4.8c-0.1,0.2-1.1,1.9-1.3,2.3c-0.4,0.7-0.8,1.4-1.2,2   c-1.3,2.2-2.6,4.3-4,6.5c-0.2,0.3-0.4,0.6-0.5,0.8c-0.1,0.2-0.3,0.5-0.5,0.8c-0.7,1.2-1.5,2.3-2.2,3.5c-1.5,2.3-3,4.6-4.5,6.8   c-4.6,6.8-11,15.6-16.8,22.9c-52.3,66.2-123.2,114.3-203,141.2c-11.9,4-24,7.6-36.2,10.7c-11.3,2.9-23.7,7-35.3,3.5   c-12.8-3.9-19.2-16.6-26.9-26.4c-6.5-8.3-12.6-16.6-18.4-25.3c48.1-34.7,94.4-71.9,137.8-112.3c49.5-45.9,95.3-95.7,136.3-149.4   C775,378.4,795.5,348.7,814.7,318.2z"></path><path d="M620.2,855.3c-21-11.5-42.1-22.6-62.2-35.7c-19.6-12.7-37.4-27.9-54.4-43.9c-30.3-28.5-57.5-60.5-79.5-95.8   c-43.9-70.6-64-152.4-62.1-235.2c0.3-11,2.2-22.6-1-33.4c-1.6-5.3-3.6-7.9-8.6-10.1c-6.6-3-13.3-5.7-20-8.2   c-27.1-9.9-55.5-15.5-84.4-15.5c-2.6,0-6.8,9-7.8,10.5c-2.7,4.6-5.9,9.6-7.3,14.8c-5.5,20.5-4.7,43.2-3.8,64.3   c0.9,21.5,3.4,42.9,7.3,64.1c8.1,44,22.4,86.7,41.7,127c38.4,80.1,97,151.8,171.1,201.3c22,14.7,45.4,29.1,72,33   c28.4,4.1,56.9-3,83.9-11.2C607.3,882.4,621.7,856.7,620.2,855.3C620.2,855.3,620.2,855.3,620.2,855.3z M544.2,867.4   c-24.6-1.9-45.9-12.6-66.6-25.3c-37.1-22.8-70.6-51.4-99.8-83.6c-59.8-65.9-102.8-147.8-122.4-234.6c-5.5-24.4-9.1-49.2-10.6-74.2   c-0.7-12-0.9-24-0.6-36c0.1-3.3,0.2-6.6,0.4-9.9c21.9,1.1,43.6,5.3,64.5,12.3c5.7,1.9,11.3,4,16.9,6.2c4.9,2,12.3,3.8,16.3,7.4   c6.7,6,5.7,18.5,5.3,26.4c-2.1,42.4,1,85.1,10.6,126.4c18.5,79.7,61.4,150.8,119.2,208.3c18,17.9,37.2,35.5,58.2,49.8   c13.4,9.2,27.4,17.4,41.6,25.3C566.1,867.5,555.2,868.2,544.2,867.4z"></path><path d="M229.1,353.8c25.4,0.3,49.9,4.1,74.3,10.9c12.8,3.6,25.4,7.7,38,11.7c6.6,2.1,13.3,4.1,19.9,6.1   c5.5,1.6,11.2,3.6,17,3.2c5.2-0.3,9.1-3.3,13.4-5.9c6.3-3.8,12.7-7.7,19-11.6c11.8-7.2,23.7-14.5,35.5-21.8   c27.1-16.7,54.1-33.5,81.1-50.2c0.1,0,0.1-0.1,0.2-0.1c0.1,0,0.1-0.1,0.2-0.1c1.6-1,3.3-4.2,4.2-5.5c1.4-2.1,2.7-4.3,4-6.5   c1.1-1.8,7.9-11.8,6.2-13.7c-2.7-3.1-5-7-8.4-9.4c-6.3-4.4-14.5-7.4-21.6-10.5c-14.2-6.2-28.9-11.4-43.9-15.6   c-29.2-8.1-59.3-12.1-89.6-12.8c-30-0.7-59.9,1.9-89.6,6.4c-12.5,1.9-25.3,2.9-37.6,6c-5.2,1.3-10.3,3-15,5.6   c-5.6,3-9.9,7.6-14.2,12.2c-22.8,24.2-39.4,53.5-58.8,80.3c-3.2,4.4-6,9.2-8.5,14c-0.2,0.4-4,8.7-3.4,8.7   C177.6,355.1,203.3,353.5,229.1,353.8z M233.9,261.1c11.6-3.4,23.8-4.4,35.7-6.1c58.4-8.5,117.3-11,175,3.4   c16.2,4,32.1,9.3,47.5,15.7c8,3.3,15.9,7,23.6,11c0.4,0.2,0.9,0.5,1.3,0.7c-15.6,9.7-31.3,19.4-46.9,29   c-11.8,7.3-23.7,14.6-35.5,21.8c-5.8,3.5-11.5,7.1-17.3,10.6c-5.9,3.6-11.9,8.1-18.2,11c-4.4,2-9.4,1.6-14,0.6   c-6.6-1.5-13-3.7-19.5-5.6c-13.3-4.1-26.5-8.5-39.8-12.4c-24.1-7.1-48.3-12-73.5-12.9c-27.2-0.9-54.4,1-81.6,1.2   c11-16.4,21.9-32.9,34.8-47.8C213.6,271.8,221.6,264.7,233.9,261.1z"></path><path d="M400.4,853.1c-50.4-43.8-94.4-94.8-128.6-152.1c-36.2-60.7-62.2-127.9-73.1-197.9   c-6.4-40.8-7.4-82.4-3.6-123.5c0-0.2-0.1-0.4-0.1-0.7c-8.9,0.1-17.9,0.1-26.8,1c-5.1,0.6-10.5,1.5-14.7,4.5   c-2.4,1.7-4.4,4.1-6.1,6.4c-4.4,6-8.2,12.5-11.5,19.2c-3.5,7-5.9,14.3-7.7,21.9c-12.9,54.3-14.9,110.2-2.8,164.8   c18.8,84.5,65,163.3,133.6,216.7c37.7,29.4,81.1,50.7,126.4,65.6c0.1,0,0.1,0.1,0.2,0c2.2-0.1,7.7-10.8,8.6-12.3   c0.8-1.4,7.4-11.5,6.3-13.5C400.6,853.2,400.5,853.1,400.4,853.1z M146.4,396.6C146.4,396.6,146.4,396.6,146.4,396.6L146.4,396.6   C146.4,396.6,146.4,396.6,146.4,396.6z M146.2,397C146.2,397,146.2,397.1,146.2,397c-0.1,0.1-0.1,0.2-0.1,0.2   C146.1,397.2,146.1,397.2,146.2,397z M146.5,396.4C146.5,396.4,146.5,396.4,146.5,396.4C146.5,396.4,146.5,396.4,146.5,396.4z    M138,411.1c0,0.1-0.1,0.1-0.1,0.2C137.6,411.5,137.7,411.4,138,411.1z M137.9,411.3C136.9,412.7,137.6,411.6,137.9,411.3   L137.9,411.3z M230.4,747.1c-48.4-53.1-81.2-122.5-93.3-193.3c-7.9-46.3-5.5-93.2,4.5-139c0.5-2.3,1-4.5,1.5-6.8   c9.6-4.1,22.5-2.9,32.5-3.1c3.3-0.1,4.2,0.2,3.9,3.9c-0.2,2.7-0.4,5.5-0.6,8.2c-0.4,5.8-0.7,11.5-0.9,17.3   c-0.4,11.2-0.4,22.3,0,33.5c0.7,21.7,2.8,43.3,6.3,64.7c7.1,43.8,20.2,86.6,38,127.3c25.9,59.3,61.5,113.8,104.6,161.8   C291,802.2,258.1,777.6,230.4,747.1z"></path><path d="M883.7,544c-58,81.6-133.2,150.7-224.9,192.5c-26.4,12.1-53.8,21.7-81.8,29.3c0,0,0,0,0,0   c-0.1,0-0.2,0.1-0.4,0.2c-0.6,0.4-1.3,1.1-1.8,1.8c-1.4,1.6-2.7,3.7-3.8,5.6c-0.4,0.6-0.8,1.3-1.2,1.9c-3,4.9-6.4,10.2-7.9,15.8   c-0.7,2.8-1.5,5.6-2.2,8.4c0,0.2,0.1,0.4,0.1,0.7c17.7,8.2,35.2,16.7,52.9,24.9c9,4.2,18,8.2,27.1,12.1c7.8,3.3,16.1,7.8,24.5,9.3   c15.5,2.6,28.6-4.1,41-12.4c12.8-8.5,25.1-17.7,36.8-27.5c49-41.2,86.6-95.1,112.5-153.5c7.2-16.2,13.3-32.8,18.4-49.8   c6.1-20.3,9.5-41.1,13.8-61.9C887.4,539.1,883.5,544.2,883.7,544z M846.3,660.8c-2.6,6.4-5.4,12.7-8.4,19c-1.1,2.3-2.6,5.3-3.9,7.8   c0.7-1.4-1.2,2.2-1.4,2.7c-0.3,0.6-0.7,1.3-1,1.9c-0.1,0.2-0.9,1.6-1.2,2.2c-0.2,0.3-0.4,0.6-0.4,0.7c-0.5,0.8-1,1.7-1.5,2.5   c-0.3,0.5-0.4,0.7-0.5,0.8c-0.1,0.1-0.2,0.4-0.5,0.7c-2.3,3.8-2.6,4.3-4.7,7.4c-3.6,5.5-7.1,10.5-11.2,15.9   c-16.6,22.2-36.1,42.2-57.4,59.9c-11.2,9.3-23,18-35.1,26.1c-6.2,4.1-12.2,8.3-19.4,10.4c-6.5,1.9-13.7,2.6-20.4,1.5   c-9-1.5-17.9-6.5-26.3-10c-9.7-4.2-19.3-8.5-28.8-13c-9.3-4.3-18.5-8.7-27.7-13.1c-1.3-0.6-2.6-1.2-3.9-1.8   c38.5-12.9,75.6-30,110.1-51.6c43.2-26.9,81.9-60.3,116.2-97.8c18.7-20.4,36-42.1,52.2-64.6c-3.5,17.1-6.2,34.3-10.9,51.2   C856.4,633.6,851.7,647.4,846.3,660.8z"></path><path d="M307.7,194.9c35.8,3,71.8,3.4,107.5,8.2c34.6,4.7,67.5,15.4,100.2,27.4c19.4,7.2,38.7,14.6,58.3,21.3   c0.7-0.2,1.3-0.7,1.7-1.4c24-25.4,47.9-50.8,71.9-76.3c1.9-2,15.6-23.3,13.3-24.6c-39.8-23.3-87.6-31.5-133.1-33.1   c-48.6-1.7-98.5,4.1-144.5,20.4c-21.6,7.6-42.7,17.7-60.6,32c-1.3,0.2-3,2.6-4.6,5.2c-2.3,3.4-4.1,7.4-5.8,10.5   c-1.4,2.6-3.1,5.3-3.9,8.1c-0.1,0.3-0.6,1.7-0.4,2C307.6,194.9,307.6,194.9,307.7,194.9z M429.7,147.6c48.2-7.7,98.5-7.6,146.4,2.5   c21.8,4.6,43.3,11.5,63,22c-16.9,17.9-33.8,35.9-50.7,53.8c-33.4-11.5-66-25.2-99.7-35.6c-34.2-10.5-69.2-15.2-104.8-17.4   c-12-0.8-24.1-1.4-36.1-2.1C373.7,158.9,402.1,152,429.7,147.6z"></path></g></svg>